<svg width="2645" height="1457" viewBox="0 0 2645 1457" fill="none" xmlns="http://www.w3.org/2000/svg">
<path d="M249.508 950.232L347.153 549.25H261.993L291.312 428.85H943.115L913.795 549.25H829.727L732.082 950.232H593.97L691.615 549.25H485.265L387.62 950.232H249.508Z" fill="url(#paint0_linear_221_363)"/>
<path d="M1094.97 950.232H904.967L1031.83 429.26H1223.28C1277.26 429.26 1321.13 439.749 1354.88 460.728C1388.7 481.473 1411.3 511.31 1422.69 550.237C1434.38 588.931 1433.64 635.317 1420.47 689.396C1407.25 743.708 1385.34 790.327 1354.75 829.254C1324.4 868.181 1287.11 898.134 1242.9 919.113C1198.74 939.859 1149.43 950.232 1094.97 950.232ZM1040.95 855.827H1112.93C1163.55 855.827 1205.14 842.657 1237.7 816.317C1270.27 789.977 1293.64 747.67 1307.84 689.396C1321.91 631.588 1319.08 589.514 1299.35 563.174C1279.61 536.834 1244.43 523.664 1193.81 523.664H1121.84L1040.95 855.827ZM1441.16 950.232L1568.03 429.26H1929.33L1907.19 520.167H1658.89L1629.09 642.543H1858.32L1836.61 731.703H1607.38L1576.3 859.324H1825.32L1803.19 950.232H1441.16ZM1892.43 950.232L2019.3 429.26H2230.18C2270.96 429.26 2303.78 436.835 2328.64 451.987C2353.74 467.138 2370.61 488 2379.26 514.573C2387.9 541.146 2388.02 571.682 2379.62 606.18C2371.22 640.679 2356.13 671.098 2334.37 697.438C2312.6 723.778 2285.38 744.407 2252.72 759.325C2220.12 774.01 2183.18 781.353 2141.92 781.353H2046.55L2005.43 950.232H1892.43ZM2068.01 693.242H2144.66C2177.53 693.242 2203.84 685.2 2223.59 669.117C2243.64 652.8 2256.78 631.821 2263.02 606.18C2269.38 580.073 2266.45 559.095 2254.24 543.244C2242.03 527.393 2219.48 519.468 2186.62 519.468H2110.33L2068.01 693.242Z" fill="white"/>
<defs>
<linearGradient id="paint0_linear_221_363" x1="1499.9" y1="0" x2="1499.9" y2="1457" gradientUnits="userSpaceOnUse">
<stop stop-color="#FDDA5E"/>
<stop offset="1" stop-color="#7C612A"/>
</linearGradient>
</defs>
</svg>
