<svg width="2600" height="1457" viewBox="0 0 2600 1457" fill="none" xmlns="http://www.w3.org/2000/svg">
<path d="M247.193 951.13L343.267 549.77H258.107L286.955 429.255H938.758L909.91 549.77H825.842L729.767 951.13H591.655L687.729 549.77H481.38L385.305 951.13H247.193Z" fill="#8F2727"/>
<path d="M1092.66 951.13H902.652L1027.48 429.666H1218.92C1272.9 429.666 1316.81 440.165 1350.65 461.163C1384.55 481.929 1407.27 511.793 1418.81 550.757C1430.65 589.488 1430.09 635.918 1417.14 690.048C1404.12 744.411 1382.4 791.074 1351.96 830.038C1321.76 869.002 1284.59 898.984 1240.46 919.982C1196.39 940.748 1147.12 951.13 1092.66 951.13ZM1038.27 856.637H1110.24C1160.86 856.637 1202.4 843.454 1234.86 817.089C1267.32 790.724 1290.54 748.377 1304.5 690.048C1318.35 632.185 1315.36 590.071 1295.52 563.706C1275.68 537.342 1240.45 524.159 1189.83 524.159H1117.85L1038.27 856.637ZM1438.85 951.13L1563.67 429.666H1924.98L1903.19 520.659H1654.89L1625.57 643.151H1854.8L1833.44 732.395H1604.2L1573.63 860.136H1822.65L1800.87 951.13H1438.85ZM1890.12 951.13L2014.94 429.666H2225.82C2266.61 429.666 2299.46 437.248 2324.38 452.414C2349.53 467.58 2366.49 488.462 2375.24 515.06C2383.98 541.658 2384.22 572.223 2375.96 606.754C2367.69 641.285 2352.73 671.732 2331.06 698.097C2309.4 724.462 2282.26 745.111 2249.66 760.043C2217.11 774.742 2180.21 782.092 2138.94 782.092H2043.58L2003.11 951.13H1890.12ZM2064.69 693.898H2141.34C2174.21 693.898 2200.48 685.848 2220.17 669.749C2240.16 653.417 2253.22 632.418 2259.36 606.754C2265.62 580.622 2262.61 559.623 2250.33 543.758C2238.05 527.892 2215.48 519.959 2182.62 519.959H2106.32L2064.69 693.898Z" fill="white"/>
</svg>
